<?xml version="1.0" standalone="no"?>
<!DOCTYPE svg PUBLIC "-//W3C//DTD SVG 1.1//EN" "http://www.w3.org/Graphics/SVG/1.1/DTD/svg11.dtd" >
<svg>
<metadata>
Created by FontForge 20120731 at Wed Jul 27 05:24:14 2016
 By Apache
Copyright (C) 2004 Hoefler &#38; Frere-Jones Typography, Inc. www.typography.com
</metadata>
<defs>
<font id="WhitneyHTF-Bold" horiz-adv-x="929" >
  <font-face 
    font-family="Whitney HTF"
    font-weight="700"
    font-stretch="normal"
    units-per-em="2048"
    panose-1="0 0 0 0 0 0 0 0 0 0"
    ascent="1638"
    descent="-410"
    x-height="1004"
    cap-height="1413"
    bbox="-162 -410 2044 1954"
    underline-thickness="40.96"
    underline-position="-251.904"
    stemh="274"
    stemv="309"
    unicode-range="U+0020-FB02"
  />
<missing-glyph horiz-adv-x="1024" 
 />
    <glyph glyph-name=".notdef" horiz-adv-x="1024" 
 />
    <glyph glyph-name="space" unicode=" " horiz-adv-x="428" 
 />
    <glyph glyph-name="exclam" unicode="!" horiz-adv-x="604" 
d="M496 1413l-97 -885l-188 -41l-100 926h385zM469 0h-334v352h334v-352z" />
    <glyph glyph-name="quotedbl" unicode="&#x22;" horiz-adv-x="1064" 
d="M969 1384l-90 -614l-197 43l-84 571h371zM467 1384l-90 -614l-199 43l-82 571h371z" />
    <glyph glyph-name="numbersign" unicode="#" horiz-adv-x="1378" 
d="M483 289l-47 -307l-186 43l41 264h-213v260h254l43 287h-223l-43 260h307l47 293h196l-47 -293h281l49 307l188 -43l-43 -264h213v-260h-251l-48 -287h228l41 -260h-309l-48 -293h-194l45 293h-281zM569 842l-47 -299h287l47 299h-287z" />
    <glyph glyph-name="dollar" unicode="$" horiz-adv-x="1124" 
d="M750 1378c92 -16 175 -47 249 -86l-43 -252c-76 45 -162 83 -254 101l-45 -299c262 -82 392 -184 392 -426c0 -291 -209 -426 -506 -426h-2l-35 -240l-150 33l31 219c-119 18 -228 56 -328 107l39 249c123 -66 229 -104 338 -120l53 350c-252 78 -393 167 -393 407
c0 250 177 400 482 400h20l23 151l149 -33zM565 229c135 2 207 56 207 152c0 74 -35 121 -160 168zM573 1157h-22c-125 0 -178 -49 -178 -127c0 -68 34 -106 159 -149z" />
    <glyph glyph-name="percent" unicode="%" horiz-adv-x="1830" 
d="M764 995c0 -264 -152 -409 -342 -409c-193 0 -344 143 -344 407c0 262 154 408 344 408s342 -144 342 -406zM1450 1358l-887 -1372l-182 41l885 1372zM549 995c0 145 -43 234 -127 234c-88 0 -131 -86 -131 -236c0 -145 45 -233 131 -233s127 88 127 235zM1753 391
c0 -262 -154 -407 -344 -407c-193 0 -342 143 -342 405c0 264 152 410 342 410c193 0 344 -144 344 -408zM1538 391c0 145 -45 234 -129 234c-88 0 -129 -89 -129 -236c0 -145 45 -233 129 -233c86 0 129 88 129 235z" />
    <glyph glyph-name="ampersand" unicode="&#x26;" horiz-adv-x="1355" 
d="M1378 33l-346 -45l-123 137c-109 -98 -240 -148 -387 -148c-283 0 -467 142 -467 388c0 199 113 321 279 417c-80 102 -117 180 -117 303c0 215 158 355 416 355c156 0 287 -39 379 -90l-45 -275c-106 57 -209 96 -301 96c-84 0 -125 -47 -125 -106c0 -53 25 -96 84 -162
l288 -330c27 76 48 165 60 271l262 -58c-25 -170 -69 -313 -135 -430zM758 303l-266 299c-78 -59 -117 -123 -117 -201c0 -104 75 -176 200 -176c63 0 126 25 183 78z" />
    <glyph glyph-name="quoteright" unicode="&#x2019;" horiz-adv-x="528" 
d="M481 1413l-205 -645l-188 43l43 602h350z" />
    <glyph glyph-name="parenleft" unicode="(" horiz-adv-x="835" 
d="M797 -137l-238 -56c-281 219 -467 453 -467 828c0 401 221 672 610 852l31 -209c-195 -168 -295 -350 -295 -639c0 -313 107 -514 359 -776z" />
    <glyph glyph-name="parenright" unicode=")" horiz-adv-x="835" 
d="M741 651c0 -403 -219 -672 -608 -854l-31 211c193 168 297 348 297 639c0 311 -108 512 -360 776l237 56c281 -221 465 -455 465 -828z" />
    <glyph glyph-name="asterisk" unicode="*" horiz-adv-x="897" 
d="M834 1118l-220 -141l97 -244l-64 -41l-198 164l-201 -164l-62 41l97 244l-220 141l23 72l262 -14l60 249h79l62 -249l262 14z" />
    <glyph glyph-name="plus" unicode="+" horiz-adv-x="1171" 
d="M1061 571h-350v-362h-250v362h-350v242h350v363h250v-363h350v-242z" />
    <glyph glyph-name="comma" unicode="," horiz-adv-x="528" 
d="M485 352l-256 -655l-184 43l90 612h350z" />
    <glyph glyph-name="hyphen" unicode="-" horiz-adv-x="724" 
d="M643 449h-559v294h559v-294z" />
    <glyph glyph-name="period" unicode="." horiz-adv-x="528" 
d="M432 0h-332v352h332v-352z" />
    <glyph glyph-name="slash" unicode="/" horiz-adv-x="1085" 
d="M1061 1376l-881 -1636l-254 55l881 1637z" />
    <glyph glyph-name="zero" unicode="0" horiz-adv-x="1298" 
d="M1225 692c0 -463 -230 -719 -574 -719c-346 0 -577 256 -577 719s231 719 577 719c344 0 574 -256 574 -719zM887 692c0 295 -76 459 -236 459s-237 -164 -237 -459s77 -459 237 -459s236 164 236 459z" />
    <glyph glyph-name="one" unicode="1" horiz-adv-x="833" 
d="M694 0h-344v1065l-278 -109l-37 267l354 163h305v-1386z" />
    <glyph glyph-name="two" unicode="2" horiz-adv-x="1130" 
d="M1059 0h-977v244l477 477c92 94 139 160 139 252c0 94 -65 147 -178 147c-123 0 -247 -55 -366 -141l-41 291c119 80 261 137 458 137c285 0 461 -149 461 -397c0 -188 -94 -311 -264 -471l-276 -269h524z" />
    <glyph glyph-name="three" unicode="3" horiz-adv-x="1116" 
d="M1040 387c0 -268 -223 -414 -522 -414c-178 0 -338 43 -455 109l43 268c115 -61 244 -102 381 -102c135 0 220 58 220 164c0 119 -84 178 -301 178h-84l-41 250h129c197 0 270 63 270 159c0 88 -66 138 -199 138c-127 0 -250 -45 -354 -115l-43 262
c109 74 266 127 448 127c309 0 486 -149 486 -364c0 -178 -101 -269 -244 -322c166 -53 266 -156 266 -338z" />
    <glyph glyph-name="four" unicode="4" horiz-adv-x="1249" 
d="M1210 276h-194v-276h-322v276h-641v213l584 897h379v-878h194v-232zM694 508v549l-354 -549h354z" />
    <glyph glyph-name="five" unicode="5" horiz-adv-x="1136" 
d="M1063 463c0 -319 -235 -490 -563 -490c-168 0 -309 40 -430 95l45 284c113 -55 244 -100 381 -100c143 0 247 67 247 194c0 113 -76 181 -211 181c-84 0 -145 -18 -198 -41l-211 47l47 751h817l43 -276h-602l-16 -246c47 12 110 25 196 25c268 0 455 -148 455 -424z" />
    <glyph glyph-name="six" unicode="6" horiz-adv-x="1181" 
d="M393 778c100 66 205 101 334 101c215 0 393 -135 393 -420c0 -293 -223 -486 -514 -486c-315 0 -532 203 -532 586c0 496 341 764 798 854l43 -270c-260 -59 -454 -168 -522 -365zM381 557c2 -231 98 -336 225 -336c119 0 197 82 197 217c0 133 -66 199 -195 199
c-78 0 -151 -29 -227 -80z" />
    <glyph glyph-name="seven" unicode="7" horiz-adv-x="1107" 
d="M1034 1120l-512 -1134l-325 57l485 1057h-580l-43 284h975v-264z" />
    <glyph glyph-name="eight" unicode="8" horiz-adv-x="1206" 
d="M659 831c80 57 127 121 127 205c0 94 -73 156 -186 156c-111 0 -176 -66 -176 -152c0 -88 59 -139 235 -209zM532 621c-88 -59 -147 -136 -147 -228c0 -117 96 -186 223 -186c115 0 205 66 205 170c0 109 -66 158 -281 244zM319 721c-127 76 -202 174 -202 313
c0 238 210 377 495 377c295 0 480 -149 480 -356c0 -133 -80 -240 -209 -322c166 -82 250 -184 250 -352c0 -238 -201 -408 -531 -408c-348 0 -530 178 -530 387c0 150 93 275 247 361z" />
    <glyph glyph-name="nine" unicode="9" horiz-adv-x="1181" 
d="M784 588c-100 -63 -204 -101 -321 -101c-231 0 -402 137 -402 428c0 305 221 496 512 496c315 0 535 -203 535 -586c0 -498 -346 -768 -819 -854l-39 271c268 51 462 156 534 346zM801 805v4c0 248 -97 354 -226 354c-117 0 -196 -82 -196 -225c0 -141 63 -209 196 -209
c78 0 150 25 226 76z" />
    <glyph glyph-name="colon" unicode=":" horiz-adv-x="546" 
d="M440 655h-331v349h331v-349zM440 0h-331v348h331v-348z" />
    <glyph glyph-name="semicolon" unicode=";" horiz-adv-x="546" 
d="M453 655h-332v349h332v-349zM475 348l-254 -651l-186 43l90 608h350z" />
    <glyph glyph-name="less" unicode="&#x3c;" horiz-adv-x="1171" 
d="M1032 129l-915 455v217l915 454v-266l-610 -295l610 -297v-268z" />
    <glyph glyph-name="equal" unicode="=" horiz-adv-x="1208" 
d="M1061 817h-911v246h911v-246zM1061 324h-911v243h911v-243z" />
    <glyph glyph-name="greater" unicode="&#x3e;" horiz-adv-x="1171" 
d="M1055 584l-916 -455v268l611 293l-611 297v268l916 -454v-217z" />
    <glyph glyph-name="question" unicode="?" horiz-adv-x="1036" 
d="M600 0h-332v352h332v-352zM553 584l-6 -68l-203 -47l-22 311l63 21c203 59 272 121 272 219c0 84 -61 135 -174 135c-129 0 -268 -61 -387 -145l-43 286c121 82 272 144 475 144c289 0 457 -145 457 -393c0 -238 -149 -373 -432 -463z" />
    <glyph glyph-name="at" unicode="@" horiz-adv-x="1710" 
d="M938 434l49 307c-23 6 -51 13 -80 13c-119 0 -221 -151 -221 -344c0 -80 31 -107 76 -107c49 0 96 33 176 131zM946 266c-98 -115 -182 -168 -282 -168c-125 0 -224 95 -224 269c0 342 213 577 473 577c119 0 240 -28 336 -67l-67 -439c-4 -29 -8 -67 -8 -104
c0 -59 34 -113 126 -113c135 0 240 152 240 416c0 410 -252 602 -602 602c-410 0 -770 -371 -770 -848c0 -434 254 -606 608 -606c164 0 313 37 436 98l13 -73c-113 -55 -275 -97 -457 -97c-426 0 -690 227 -690 676c0 494 391 924 868 924c410 0 684 -246 684 -674
c0 -328 -147 -541 -405 -541c-131 0 -240 66 -279 168z" />
    <glyph glyph-name="A" unicode="A" horiz-adv-x="1437" 
d="M1411 43l-352 -57l-107 307h-485l-98 -293h-342l508 1419h385zM868 567l-159 492l-160 -492h319z" />
    <glyph glyph-name="B" unicode="B" horiz-adv-x="1204" 
d="M1143 408c0 -272 -205 -408 -543 -408h-471v1413h481c322 0 480 -137 480 -366c0 -154 -88 -248 -203 -299c154 -49 256 -147 256 -340zM778 1008c0 94 -57 153 -192 153h-125v-319h117c131 0 200 64 200 166zM813 430c0 123 -80 186 -227 186h-125v-364h129
c141 0 223 59 223 178z" />
    <glyph glyph-name="C" unicode="C" horiz-adv-x="1239" 
d="M1165 80c-115 -63 -245 -105 -401 -105c-428 0 -686 288 -686 730c0 438 275 733 676 733c160 0 289 -35 391 -92l-49 -316c-86 66 -193 115 -316 115c-213 0 -352 -162 -352 -438c0 -283 158 -439 371 -439c115 0 215 40 321 99z" />
    <glyph glyph-name="D" unicode="D" horiz-adv-x="1443" 
d="M1364 709c0 -420 -262 -709 -739 -709h-496v1413h485c492 0 750 -284 750 -704zM1012 707c0 297 -166 434 -406 434h-127v-869h127c250 0 406 132 406 435z" />
    <glyph glyph-name="E" unicode="E" horiz-adv-x="1095" 
d="M1028 0h-899v1413h881v-280h-537v-259h410l45 -288h-455v-305h555v-281z" />
    <glyph glyph-name="F" unicode="F" horiz-adv-x="1030" 
d="M975 1120h-498v-286h369l49 -297h-418v-537h-348v1413h846v-293z" />
    <glyph glyph-name="G" unicode="G" horiz-adv-x="1396" 
d="M1290 123c-147 -96 -321 -150 -516 -150c-449 0 -696 296 -696 732c0 438 268 735 704 735c174 0 319 -42 432 -105l-47 -305c-106 68 -231 121 -376 121c-244 0 -363 -180 -363 -444c0 -266 123 -453 367 -453c78 0 133 14 190 45v252h-246l-41 260h592v-688z" />
    <glyph glyph-name="H" unicode="H" horiz-adv-x="1447" 
d="M1319 0h-350v578h-490v-578h-350v1413h350v-528h490v528h350v-1413z" />
    <glyph glyph-name="I" unicode="I" horiz-adv-x="624" 
d="M487 0h-350v1413h350v-1413z" />
    <glyph glyph-name="J" unicode="J" horiz-adv-x="870" 
d="M754 430c0 -322 -203 -444 -473 -444c-80 0 -158 8 -195 18l-47 295c45 -12 88 -23 166 -23c123 0 196 51 196 209v928h353v-983z" />
    <glyph glyph-name="K" unicode="K" horiz-adv-x="1331" 
d="M1331 43l-377 -57l-475 671v-657h-350v1413h350v-604l445 604h389l-500 -653z" />
    <glyph glyph-name="L" unicode="L" horiz-adv-x="993" 
d="M961 0h-832v1413h350v-1110h434z" />
    <glyph glyph-name="M" unicode="M" horiz-adv-x="1824" 
d="M1737 0h-357l-61 940l-268 -942h-328l-268 942l-62 -940h-305l102 1413h453l275 -973l276 973h440z" />
    <glyph glyph-name="N" unicode="N" horiz-adv-x="1443" 
d="M1315 0h-303l-557 846v-846h-326v1413h340l520 -790v790h326v-1413z" />
    <glyph glyph-name="O" unicode="O" horiz-adv-x="1505" 
d="M1427 709c0 -436 -265 -736 -677 -736c-406 0 -672 296 -672 732c0 438 266 735 676 735s673 -295 673 -731zM1075 707c0 281 -118 458 -323 458s-324 -177 -324 -458s121 -459 324 -459c205 0 323 178 323 459z" />
    <glyph glyph-name="P" unicode="P" horiz-adv-x="1175" 
d="M1139 952c0 -319 -228 -483 -570 -483h-90v-469h-350v1413h455c344 0 555 -154 555 -461zM799 946c0 135 -80 203 -236 203h-88v-416h82c156 0 242 68 242 213z" />
    <glyph glyph-name="Q" unicode="Q" horiz-adv-x="1505" 
d="M1427 729c0 -295 -126 -509 -329 -618l329 -105l-65 -299l-793 285c-326 117 -491 340 -491 713c0 438 268 735 676 735c406 0 673 -279 673 -711zM1075 705c0 272 -118 460 -323 460s-324 -188 -324 -460c0 -274 121 -465 324 -465c207 0 323 191 323 465z" />
    <glyph glyph-name="R" unicode="R" horiz-adv-x="1259" 
d="M821 946c0 131 -81 203 -233 203h-113v-412h109c150 0 237 74 237 209zM903 565l338 -520l-358 -59l-310 499h-96v-485h-348v1413h494c342 0 542 -155 542 -446c0 -195 -94 -328 -262 -402z" />
    <glyph glyph-name="S" unicode="S" horiz-adv-x="1132" 
d="M1071 426c0 -307 -225 -442 -506 -442c-190 0 -350 40 -493 106l51 299c145 -78 307 -131 448 -131c100 0 170 43 170 127c0 80 -40 117 -239 193c-283 109 -406 201 -406 434c0 272 214 418 484 418c184 0 303 -36 426 -95l-54 -295c-127 74 -259 115 -368 115
c-106 0 -158 -45 -158 -111c0 -72 39 -106 215 -174c307 -113 430 -219 430 -444z" />
    <glyph glyph-name="T" unicode="T" horiz-adv-x="1247" 
d="M1219 1116h-424v-1116h-353v1116h-391v297h1118z" />
    <glyph glyph-name="U" unicode="U" horiz-adv-x="1409" 
d="M1296 561c0 -393 -254 -584 -596 -584c-346 0 -587 187 -587 582v854h352v-852c0 -182 82 -289 240 -289c160 0 239 105 239 285v856h352v-852z" />
    <glyph glyph-name="V" unicode="V" horiz-adv-x="1417" 
d="M1391 1413l-510 -1419h-359l-495 1376l381 57l315 -991l307 977h361z" />
    <glyph glyph-name="W" unicode="W" horiz-adv-x="2027" 
d="M1991 1413l-385 -1413h-355l-243 911l-244 -911h-352l-373 1368l379 59l213 -899l229 885h352l230 -885l203 885h346z" />
    <glyph glyph-name="X" unicode="X" horiz-adv-x="1353" 
d="M471 719l-410 649l373 59s256 -444 256 -446l244 432h360l-411 -668c0 2 444 -700 444 -700l-375 -59l-290 497l-279 -483h-358z" />
    <glyph glyph-name="Y" unicode="Y" horiz-adv-x="1376" 
d="M1364 1413l-508 -893v-520h-352v516l-488 860l373 51l307 -587l301 573h367z" />
    <glyph glyph-name="Z" unicode="Z" horiz-adv-x="1255" 
d="M1188 0h-1106v254l659 881h-587l-43 278h1058v-254l-659 -880h633z" />
    <glyph glyph-name="bracketleft" unicode="[" horiz-adv-x="856" 
d="M784 -213h-639v1626h629v-188h-332v-1248h310z" />
    <glyph glyph-name="backslash" unicode="\" horiz-adv-x="1085" 
d="M1159 -207l-256 -53l-880 1636l256 56z" />
    <glyph glyph-name="bracketright" unicode="]" horiz-adv-x="856" 
d="M711 -213h-629v190h332v1248h-312l-30 188h639v-1626z" />
    <glyph glyph-name="asciicircum" unicode="^" 
d="M807 1147l-182 -35l-158 127l-152 -119h-196l209 301h282z" />
    <glyph glyph-name="underscore" unicode="_" 
d="M934 -213h-938v143h938v-143z" />
    <glyph glyph-name="quoteleft" unicode="&#x2018;" horiz-adv-x="528" 
d="M442 1389l-45 -603h-350l207 646z" />
    <glyph glyph-name="a" unicode="a" horiz-adv-x="1038" 
d="M940 0h-274l-21 125c-82 -86 -178 -145 -315 -145c-160 0 -273 96 -273 278c0 236 181 346 574 381v18c0 88 -50 127 -152 127c-113 0 -217 -28 -323 -75l-37 233c115 47 243 78 407 78c276 0 414 -92 414 -348v-672zM631 276v213c-211 -33 -269 -102 -269 -190
c0 -63 40 -98 97 -98c59 0 117 26 172 75z" />
    <glyph glyph-name="b" unicode="b" horiz-adv-x="1107" 
d="M1044 528c0 -373 -198 -540 -507 -540c-162 0 -314 26 -431 71v1371l310 49v-586c63 66 149 131 268 131c205 0 360 -156 360 -496zM735 508c0 168 -61 240 -149 240c-66 0 -119 -40 -170 -97v-397c41 -12 65 -18 112 -18c121 0 207 73 207 272z" />
    <glyph glyph-name="c" unicode="c" horiz-adv-x="923" 
d="M862 72c-100 -61 -200 -90 -319 -90c-289 0 -486 188 -486 512c0 354 226 526 498 526c121 0 217 -29 299 -76l-41 -264c-80 51 -145 74 -227 74c-125 0 -215 -84 -215 -252c0 -172 100 -256 225 -256c74 0 143 23 229 78z" />
    <glyph glyph-name="d" unicode="d" horiz-adv-x="1114" 
d="M1008 0h-275l-20 131c-68 -76 -160 -151 -289 -151c-205 0 -363 155 -363 493c0 383 203 537 424 537c92 0 156 -13 213 -33v453l310 49v-1479zM698 356v383c-45 20 -79 29 -145 29c-102 0 -180 -79 -180 -272c0 -172 65 -242 153 -242c66 0 119 43 172 102z" />
    <glyph glyph-name="e" unicode="e" horiz-adv-x="1034" 
d="M975 504c0 -31 -2 -64 -6 -80h-602c16 -158 110 -219 245 -219c111 0 219 41 330 104l31 -217c-109 -70 -242 -112 -400 -112c-301 0 -516 160 -516 518c0 328 201 526 473 526c307 0 445 -229 445 -520zM680 594c-10 152 -64 229 -158 229c-86 0 -147 -75 -157 -229h315
z" />
    <glyph glyph-name="f" unicode="f" horiz-adv-x="698" 
d="M709 1212c-31 4 -68 9 -111 9c-84 0 -123 -41 -123 -123v-94h182l37 -252h-219v-752h-309v752h-139v252h139v124c0 242 150 332 381 332c49 0 90 -6 125 -10z" />
    <glyph glyph-name="g" unicode="g" horiz-adv-x="1093" 
d="M317 18c-41 -41 -59 -77 -59 -112c0 -70 78 -119 258 -119c162 0 254 53 254 119c0 47 -36 68 -145 80l-150 12c-74 6 -109 12 -158 20zM645 674c0 94 -55 164 -147 164c-90 0 -144 -74 -144 -170c0 -94 54 -160 144 -160c94 0 147 70 147 166zM803 924l237 90l39 -230
s-174 -4 -176 -4c12 -35 19 -69 19 -106c0 -217 -189 -346 -416 -346c-33 0 -63 2 -94 6c-16 -16 -25 -31 -25 -45c0 -29 25 -37 160 -53l184 -13c201 -20 322 -83 322 -235c0 -219 -239 -361 -561 -361c-283 0 -484 86 -484 240c0 88 53 154 164 215c-35 31 -55 72 -55 111
c0 63 51 125 149 180c-125 57 -192 162 -192 291c0 219 180 356 422 356c127 0 231 -37 307 -96z" />
    <glyph glyph-name="h" unicode="h" horiz-adv-x="1099" 
d="M999 0h-311v629c0 72 -28 121 -102 121c-59 0 -115 -36 -170 -91v-659h-310v1430l310 49v-600c84 82 176 145 299 145c186 0 284 -116 284 -311v-713z" />
    <glyph glyph-name="i" unicode="i" horiz-adv-x="536" 
d="M444 1300c0 -100 -76 -165 -176 -165c-98 0 -176 65 -176 165c0 102 78 168 176 168c100 0 176 -66 176 -168zM424 0h-311v1004h311v-1004z" />
    <glyph glyph-name="j" unicode="j" horiz-adv-x="538" 
d="M444 1300c0 -100 -76 -165 -176 -165c-98 0 -176 65 -176 165c0 102 78 168 176 168c100 0 176 -66 176 -168zM424 -29c0 -250 -143 -344 -350 -344c-43 0 -91 4 -111 8l-37 242c23 -4 43 -8 74 -8c70 0 113 29 113 127v1008h311v-1033z" />
    <glyph glyph-name="k" unicode="k" horiz-adv-x="1034" 
d="M1028 31l-321 -45l-291 481v-467h-310v1430l310 49v-887l268 412h332l-316 -457z" />
    <glyph glyph-name="l" unicode="l" horiz-adv-x="536" 
d="M424 0h-311v1430l311 49v-1479z" />
    <glyph glyph-name="m" unicode="m" horiz-adv-x="1660" 
d="M1561 0h-312v629c0 72 -26 121 -98 121c-55 0 -109 -35 -164 -88v-662h-309v629c0 72 -26 121 -98 121c-57 0 -109 -35 -164 -88v-662h-310v1004h273l22 -138c90 92 183 158 312 158c137 0 213 -68 250 -158c90 90 188 158 313 158c186 0 285 -116 285 -311v-713z" />
    <glyph glyph-name="n" unicode="n" horiz-adv-x="1099" 
d="M999 0h-311v629c0 72 -28 121 -102 121c-59 0 -115 -36 -170 -91v-659h-310v1004h273l22 -138c90 88 187 158 314 158c186 0 284 -116 284 -311v-713z" />
    <glyph glyph-name="o" unicode="o" horiz-adv-x="1079" 
d="M1022 502c0 -322 -206 -522 -485 -522c-276 0 -480 198 -480 520s206 524 482 524c279 0 483 -200 483 -522zM723 500c0 162 -65 270 -184 270s-183 -104 -183 -268c0 -162 66 -273 183 -273c119 0 184 109 184 271z" />
    <glyph glyph-name="p" unicode="p" horiz-adv-x="1114" 
d="M1049 528c0 -381 -201 -538 -422 -538c-90 0 -154 17 -211 35v-359l-310 -47v1385h273l20 -134c70 78 160 154 289 154c207 0 361 -156 361 -496zM739 508c0 168 -63 240 -151 240c-68 0 -121 -42 -172 -103v-381c43 -20 78 -31 141 -31c104 0 182 80 182 275z" />
    <glyph glyph-name="q" unicode="q" horiz-adv-x="1107" 
d="M1001 -334l-309 -47v490c-66 -63 -149 -129 -268 -129c-207 0 -363 155 -363 493c0 373 201 543 508 543c162 0 313 -29 432 -72v-1278zM692 350v398c-41 14 -67 18 -114 18c-121 0 -205 -73 -205 -270c0 -172 61 -242 149 -242c63 0 117 41 170 96z" />
    <glyph glyph-name="r" unicode="r" horiz-adv-x="772" 
d="M754 709c-150 -10 -262 -70 -338 -152v-557h-310v1004h271l33 -199c61 115 145 209 292 219z" />
    <glyph glyph-name="s" unicode="s" horiz-adv-x="950" 
d="M891 309c0 -211 -146 -325 -412 -325c-160 0 -309 45 -413 100l36 235c119 -74 264 -118 379 -118c86 0 127 28 127 75c0 51 -29 74 -170 109c-252 66 -358 134 -358 322c0 186 139 311 385 311c135 0 267 -27 371 -74l-39 -235c-109 59 -234 94 -330 94
c-74 0 -107 -27 -107 -66c0 -41 29 -63 170 -102c266 -72 361 -140 361 -326z" />
    <glyph glyph-name="t" unicode="t" horiz-adv-x="743" 
d="M705 6c-49 -14 -97 -20 -179 -20c-215 0 -364 77 -364 333v433h-133v252h133v299l307 47v-346h190l39 -252h-229v-383c0 -82 39 -119 123 -119c27 0 51 4 74 10z" />
    <glyph glyph-name="u" unicode="u" horiz-adv-x="1099" 
d="M993 0h-272l-23 137c-92 -90 -188 -157 -313 -157c-186 0 -285 114 -285 309v715h310v-629c0 -72 30 -123 104 -123c59 0 115 35 170 90v662h309v-1004z" />
    <glyph glyph-name="v" unicode="v" horiz-adv-x="1038" 
d="M1022 1004l-350 -1008h-310l-342 983l332 39l187 -635l182 621h301z" />
    <glyph glyph-name="w" unicode="w" horiz-adv-x="1484" 
d="M1464 1004l-280 -1004h-295l-148 573l-145 -573h-297l-274 979l319 39l137 -600l142 586h278l143 -584l134 584h286z" />
    <glyph glyph-name="x" unicode="x" horiz-adv-x="1015" 
d="M985 25l-321 -39l-172 309l-166 -295h-295l305 496l-291 483l322 39l155 -285l154 271h293l-291 -472z" />
    <glyph glyph-name="y" unicode="y" horiz-adv-x="1044" 
d="M1028 1004l-356 -1024c-90 -262 -213 -353 -432 -353c-61 0 -88 7 -117 13l-39 247c33 -10 64 -16 123 -16c70 0 131 26 164 96l12 31l-365 981l332 39l195 -633l184 619h299z" />
    <glyph glyph-name="z" unicode="z" horiz-adv-x="956" 
d="M905 0h-846v233l439 529h-383l-37 242h803v-236l-439 -526h424z" />
    <glyph glyph-name="braceleft" unicode="{" horiz-adv-x="1036" 
d="M961 -213h-316c-211 0 -319 102 -319 268c0 96 26 181 26 271c0 137 -82 180 -219 180h-51l-31 190h84c135 0 217 43 217 178c0 92 -26 177 -26 271c0 166 108 268 319 268h307v-188h-182c-96 0 -139 -43 -139 -119c0 -82 26 -152 26 -244c0 -152 -83 -227 -233 -260v-4
c150 -33 233 -108 233 -260c0 -90 -26 -162 -26 -244c0 -74 43 -117 139 -117h160z" />
    <glyph glyph-name="bar" unicode="|" horiz-adv-x="614" 
d="M438 -340l-260 -41v1819l260 41v-1819z" />
    <glyph glyph-name="braceright" unicode="}" horiz-adv-x="1036" 
d="M983 506h-84c-135 0 -219 -43 -219 -180c0 -90 29 -175 29 -271c0 -166 -107 -268 -320 -268h-307v190h184c94 0 140 41 140 115c0 82 -29 156 -29 246c0 152 83 227 233 260v4c-150 33 -233 108 -233 260c0 92 29 164 29 246c0 76 -46 117 -140 117h-164l-28 188h315
c213 0 320 -102 320 -268c0 -94 -29 -179 -29 -271c0 -135 84 -178 221 -178h51z" />
    <glyph glyph-name="asciitilde" unicode="~" horiz-adv-x="837" 
d="M762 725c-29 -209 -93 -285 -197 -285c-51 0 -88 16 -145 41c-78 33 -102 43 -133 43s-50 -18 -66 -90l-145 31c27 213 92 287 196 287c51 0 87 -16 144 -41c80 -35 102 -43 135 -43c29 0 47 20 65 92z" />
    <glyph glyph-name="exclamdown" unicode="&#xa1;" horiz-adv-x="604" 
d="M469 1061h-334v352h334v-352zM496 0h-385l94 885l188 43z" />
    <glyph glyph-name="cent" unicode="&#xa2;" horiz-adv-x="1011" 
d="M612 180l-30 -200l-156 34l29 181c-231 49 -379 229 -379 495c0 328 229 512 528 512h6l31 201l156 -35l-31 -180c63 -12 117 -33 162 -60l-37 -247c-53 31 -113 55 -174 67l-80 -522c82 2 166 23 268 80l31 -238c-102 -57 -203 -84 -324 -88zM508 444l80 512
c-141 -10 -219 -102 -219 -270c0 -121 49 -205 139 -242z" />
    <glyph glyph-name="sterling" unicode="&#xa3;" horiz-adv-x="1128" 
d="M289 817l73 236c76 250 217 358 465 358c94 0 167 -13 222 -31l-41 -276c-49 16 -91 22 -146 22c-106 0 -163 -47 -200 -172l-44 -137h254l41 -260h-376l-91 -291h568l43 -266h-961v207l111 350h-111v260h193z" />
    <glyph glyph-name="fraction" unicode="&#x2044;" horiz-adv-x="925" 
d="M1096 1569l-1100 -1790l-158 37l1100 1790z" />
    <glyph glyph-name="yen" unicode="&#xa5;" horiz-adv-x="1312" 
d="M813 455v-133h320v-156h-320v-166h-336v166h-303l-24 156h327v133h-317v155h274l-418 742l359 47l291 -580l280 565h352l-442 -774h262l25 -155h-330z" />
    <glyph glyph-name="florin" unicode="&#x192;" horiz-adv-x="911" 
d="M260 936l19 119c39 258 171 346 413 346c66 0 117 -4 164 -10v-254c-29 6 -61 10 -98 10c-92 0 -138 -43 -154 -143l-10 -68h188v-256h-229l-111 -680h-329l106 680h-151l36 256h156z" />
    <glyph glyph-name="section" unicode="&#xa7;" horiz-adv-x="1165" 
d="M1102 748c0 -68 -29 -144 -68 -195l-227 37c14 27 27 53 27 84c0 51 -37 75 -156 104l-160 39c-199 49 -311 119 -311 289c0 190 158 295 373 295c135 0 231 -18 331 -53l-32 -213c-98 41 -195 63 -279 63c-74 0 -104 -28 -104 -65c0 -41 28 -57 120 -82l177 -43
c221 -55 309 -115 309 -260zM66 637c0 68 26 143 67 194l225 -36c-14 -27 -24 -53 -24 -84c0 -51 34 -76 155 -105l158 -39c199 -49 311 -118 311 -288c0 -190 -157 -295 -372 -295c-133 0 -230 18 -332 53l33 213c98 -41 196 -64 280 -64c72 0 105 29 105 66
c0 41 -31 57 -121 82l-178 43c-219 55 -307 115 -307 260z" />
    <glyph glyph-name="currency" unicode="&#xa4;" horiz-adv-x="1247" 
d="M207 778h-156v158h180c72 285 279 471 594 471c141 0 259 -29 353 -80l-45 -272c-88 51 -166 80 -279 80c-133 0 -229 -70 -274 -199h397l27 -158h-455c-2 -29 -2 -57 -2 -86c0 -23 0 -46 2 -69h440v-158h-414c45 -145 148 -215 302 -215c98 0 188 29 280 80l43 -264
c-109 -53 -221 -89 -373 -89c-340 0 -543 177 -604 488h-160l-24 158h166c-2 23 -2 44 -2 67c0 31 2 59 4 88z" />
    <glyph glyph-name="quotesingle" unicode="'" horiz-adv-x="569" 
d="M473 1384l-88 -614l-207 43l-82 571h377z" />
    <glyph glyph-name="quotedblleft" unicode="&#x201c;" horiz-adv-x="985" 
d="M436 1389l-45 -603h-344l207 646zM897 1389l-43 -603h-344l205 646z" />
    <glyph glyph-name="guillemotleft" unicode="&#xab;" horiz-adv-x="1169" 
d="M1096 1004l-222 -502l209 -477l-200 -41l-348 518l339 502h222zM608 1004l-223 -502l211 -477l-201 -41l-350 518l340 502h223z" />
    <glyph glyph-name="guilsinglleft" unicode="&#x2039;" horiz-adv-x="681" 
d="M608 1004l-223 -502l211 -477l-201 -41l-350 518l340 502h223z" />
    <glyph glyph-name="guilsinglright" unicode="&#x203a;" horiz-adv-x="681" 
d="M637 500l-340 -500h-223l221 500l-209 477l201 43z" />
    <glyph glyph-name="fi" unicode="&#xfb01;" horiz-adv-x="1236" 
d="M1143 1303c0 -100 -78 -166 -176 -166s-176 66 -176 166s78 165 176 165s176 -65 176 -165zM709 1212c-31 4 -68 9 -111 9c-84 0 -123 -41 -123 -123v-94h182l37 -252h-219v-752h-309v752h-139v252h139v124c0 242 150 332 381 332c49 0 90 -6 125 -10zM1122 0h-311v1004
h311v-1004z" />
    <glyph glyph-name="fl" unicode="&#xfb02;" horiz-adv-x="1236" 
d="M1122 0h-311v1430l311 49v-1479zM709 1212c-31 4 -68 9 -111 9c-84 0 -123 -41 -123 -123v-94h182l37 -252h-219v-752h-309v752h-139v252h139v124c0 242 150 332 381 332c49 0 90 -6 125 -10z" />
    <glyph glyph-name="endash" unicode="&#x2013;" 
d="M846 451h-762v288h762v-288z" />
    <glyph glyph-name="dagger" unicode="&#x2020;" horiz-adv-x="1048" 
d="M664 1251l-105 -276h-70l-102 276v162h277v-162zM969 764h-86l-277 96v68l277 96h86v-260zM442 860l-276 -96h-86v260h86l276 -96v-68zM637 23l-82 -256h-63l-82 256v548l79 244h70l78 -244v-548z" />
    <glyph glyph-name="daggerdbl" unicode="&#x2021;" horiz-adv-x="1087" 
d="M682 1251l-104 -276h-70l-102 276v162h276v-162zM987 772h-86l-276 88v68l276 90h86v-246zM461 860l-277 -88h-86v246h86l277 -90v-68zM670 471l-92 -244h-70l-92 244v100l92 244h70l92 -244v-100zM987 25h-86l-276 88v67l276 90h86v-245zM461 113l-277 -88h-86v245h86
l277 -90v-67zM682 -373h-276v162l102 279h70l104 -279v-162z" />
    <glyph glyph-name="periodcentered" unicode="&#xb7;" horiz-adv-x="528" 
d="M432 418h-332v354h332v-354z" />
    <glyph glyph-name="paragraph" unicode="&#xb6;" horiz-adv-x="1126" 
d="M985 0h-186v1243h-133v-336l-74 -450c-317 10 -520 164 -520 467c0 291 200 460 526 460h387v-1384z" />
    <glyph glyph-name="bullet" unicode="&#x2022;" horiz-adv-x="987" 
d="M844 705l-49 -320l-301 -47l-299 47l-52 320l52 321l299 47l301 -47z" />
    <glyph glyph-name="quotesinglbase" unicode="&#x201a;" horiz-adv-x="528" 
d="M469 352l-205 -645l-188 43l45 602h348z" />
    <glyph glyph-name="quotedblbase" unicode="&#x201e;" horiz-adv-x="985" 
d="M465 352l-207 -645l-182 43l45 602h344zM926 352l-205 -645l-182 43l43 602h344z" />
    <glyph glyph-name="quotedblright" unicode="&#x201d;" horiz-adv-x="985" 
d="M475 1413l-205 -645l-182 43l43 602h344zM938 1413l-207 -645l-182 43l45 602h344z" />
    <glyph glyph-name="guillemotright" unicode="&#xbb;" horiz-adv-x="1169" 
d="M1124 500l-340 -500h-223l223 500l-211 477l203 43zM637 500l-340 -500h-223l221 500l-209 477l201 43z" />
    <glyph glyph-name="ellipsis" unicode="&#x2026;" horiz-adv-x="1593" 
d="M1489 0h-326v350h326v-350zM961 0h-326v350h326v-350zM432 0h-328v350h328v-350z" />
    <glyph glyph-name="perthousand" unicode="&#x2030;" horiz-adv-x="1636" 
d="M1526 709c0 -436 -291 -736 -709 -736c-420 0 -706 296 -706 732c0 438 290 735 708 735c420 0 707 -295 707 -731zM1436 707c0 424 -271 659 -617 659c-352 0 -618 -235 -618 -659s270 -660 618 -660c350 0 617 236 617 660zM1006 635l200 -287l-231 -41l-182 273h-48
v-263h-221v807h287c211 0 332 -96 332 -264c0 -104 -51 -180 -137 -225zM799 963h-56v-232h56c88 0 131 41 131 117c0 74 -45 115 -131 115z" />
    <glyph glyph-name="questiondown" unicode="&#xbf;" horiz-adv-x="1036" 
d="M436 1413h332v-352h-332v352zM483 829l6 68l203 47l23 -311l-64 -21c-199 -63 -272 -121 -272 -219c0 -84 61 -135 174 -135c129 0 268 61 387 145l43 -286c-121 -82 -272 -144 -475 -144c-289 0 -457 146 -457 394c0 238 149 372 432 462z" />
    <glyph glyph-name="grave" unicode="`" 
d="M698 1120h-202l-299 248l378 62z" />
    <glyph glyph-name="acute" unicode="&#xb4;" 
d="M731 1368l-301 -248h-197l123 310z" />
    <glyph glyph-name="circumflex" unicode="&#x2c6;" 
d="M807 1147l-182 -35l-158 127l-152 -119h-196l209 301h282z" />
    <glyph glyph-name="tilde" unicode="&#x2dc;" 
d="M807 1405c-27 -211 -93 -285 -195 -285c-53 0 -88 16 -145 41c-78 33 -102 43 -133 43s-50 -18 -66 -90l-145 31c27 213 92 287 194 287c53 0 89 -14 146 -41c78 -35 102 -43 133 -43s50 20 66 92z" />
    <glyph glyph-name="macron" unicode="&#xaf;" 
d="M770 1145h-610v213h610v-213z" />
    <glyph glyph-name="breve" unicode="&#x2d8;" 
d="M784 1425c-20 -195 -128 -307 -321 -307c-184 0 -293 111 -316 291l172 27c27 -90 70 -121 148 -121c72 0 119 32 139 110h178z" />
    <glyph glyph-name="dotaccent" unicode="&#x2d9;" 
d="M602 1122h-274v269h274v-269z" />
    <glyph glyph-name="dieresis" unicode="&#xa8;" 
d="M801 1122h-266v269h266v-269zM395 1122h-266v269h266v-269z" />
    <glyph glyph-name="ring" unicode="&#x2da;" 
d="M735 1337c0 -123 -92 -221 -270 -221s-270 98 -270 221c0 121 92 222 270 222s270 -101 270 -222zM567 1337c0 63 -41 117 -102 117s-103 -54 -103 -117c0 -66 42 -118 103 -118s102 52 102 118z" />
    <glyph glyph-name="cedilla" unicode="&#xb8;" 
d="M700 -156l-284 -217h-199l111 279z" />
    <glyph glyph-name="hungarumlaut" unicode="&#x2dd;" 
d="M907 1372l-297 -250h-164l125 308zM496 1372l-295 -250h-166l123 308z" />
    <glyph glyph-name="ogonek" unicode="&#x2db;" 
d="M717 -373h-203l-289 217l379 62z" />
    <glyph glyph-name="caron" unicode="&#x2c7;" 
d="M811 1421l-209 -301h-283l-196 275l182 37l158 -129l151 118h197z" />
    <glyph glyph-name="emdash" unicode="&#x2014;" horiz-adv-x="1859" 
d="M1776 453h-1692v284h1692v-284z" />
    <glyph glyph-name="AE" unicode="&#xc6;" horiz-adv-x="1855" 
d="M1788 0h-885v293h-401l-140 -293h-358l686 1413h1079v-280h-536v-259h409l46 -288h-455v-305h555v-281zM903 567v613l-282 -613h282z" />
    <glyph glyph-name="ordfeminine" unicode="&#xaa;" horiz-adv-x="821" 
d="M700 725h-186l-14 82c-63 -57 -131 -94 -219 -94c-111 0 -185 69 -185 178c0 156 123 228 393 248v12c0 66 -38 88 -112 88c-76 0 -145 -18 -217 -49l-23 151c76 31 170 54 285 54c184 0 278 -68 278 -228v-442zM719 455h-615v149h590zM489 913v125
c-141 -18 -188 -65 -188 -114c0 -41 22 -66 61 -66c45 0 88 20 127 55z" />
    <glyph glyph-name="Lslash" unicode="&#x141;" horiz-adv-x="1062" 
d="M1030 0h-827v561l-135 -37l-48 283l183 51v555h348v-455l283 80v-297l-283 -77v-361h432z" />
    <glyph glyph-name="Oslash" unicode="&#xd8;" horiz-adv-x="1505" 
d="M1454 1384l-168 -206c92 -123 141 -285 141 -473c0 -436 -268 -732 -671 -732c-154 0 -290 43 -396 123l-96 -114l-211 47l166 204c-92 125 -141 288 -141 476c0 436 271 731 672 731c156 0 288 -43 397 -123l94 115zM958 1090c-53 57 -122 88 -206 88
c-207 0 -328 -188 -328 -471c0 -86 12 -161 37 -224zM1081 707c0 86 -11 162 -34 223l-500 -606c53 -57 123 -88 205 -88c207 0 329 188 329 471z" />
    <glyph glyph-name="OE" unicode="&#x152;" horiz-adv-x="1859" 
d="M1792 0h-965c-492 0 -747 287 -747 705c0 420 262 708 739 708h955v-280h-537v-259h410l45 -288h-455v-305h555v-281zM897 272v869h-59c-250 0 -408 -131 -408 -434c0 -297 166 -435 408 -435h59z" />
    <glyph glyph-name="ordmasculine" unicode="&#xba;" horiz-adv-x="823" 
d="M745 1053c0 -211 -140 -340 -335 -340c-190 0 -332 129 -332 340s142 342 332 342c195 0 335 -131 335 -342zM731 455h-633v149h609zM535 1053c0 104 -45 174 -125 174c-78 0 -121 -72 -121 -174c0 -104 43 -174 121 -174c80 0 125 70 125 174z" />
    <glyph glyph-name="ae" unicode="&#xe6;" horiz-adv-x="1599" 
d="M1538 504c0 -31 -2 -64 -4 -80h-604c16 -158 113 -219 246 -219c111 0 220 41 329 104l33 -217c-109 -70 -241 -112 -399 -112c-166 0 -306 49 -398 149c-113 -94 -229 -149 -368 -149c-182 0 -316 90 -316 276c0 231 177 346 568 383v18c0 88 -44 127 -146 127
c-113 0 -217 -28 -323 -75l-37 233c115 47 246 78 391 78c162 0 250 -39 309 -133c72 86 164 137 291 137c293 0 428 -229 428 -520zM1243 594c-8 152 -64 229 -158 229c-84 0 -147 -75 -155 -229h313zM653 283c-18 61 -30 126 -30 202v2c-205 -33 -261 -104 -261 -184
c0 -70 41 -102 107 -102c63 0 123 27 184 82z" />
    <glyph glyph-name="dotlessi" unicode="&#x131;" horiz-adv-x="536" 
d="M426 0h-309v1004h309v-1004z" />
    <glyph glyph-name="lslash" unicode="&#x142;" horiz-adv-x="681" 
d="M655 709l-161 -45v-664h-306v575l-137 -38l-47 284l184 51v558l306 49v-516l161 41v-295z" />
    <glyph glyph-name="oslash" unicode="&#xf8;" horiz-adv-x="1079" 
d="M1042 981l-120 -145c66 -84 100 -199 100 -334c0 -322 -209 -522 -479 -522c-104 0 -201 28 -279 83l-61 -79l-166 36l121 146c-61 86 -99 199 -99 334c0 322 208 524 478 524c104 0 200 -31 278 -84l62 80zM653 739c-29 29 -67 47 -114 47c-123 0 -189 -116 -189 -284
c0 -45 5 -90 15 -127zM715 629l-291 -365c31 -31 68 -47 115 -47c125 0 194 115 194 283c0 47 -6 92 -18 129z" />
    <glyph glyph-name="oe" unicode="&#x153;" horiz-adv-x="1699" 
d="M1638 504c0 -31 -2 -64 -4 -80h-604c16 -158 115 -219 248 -219c111 0 219 41 330 104l30 -217c-109 -70 -227 -112 -391 -112c-172 0 -299 59 -377 170c-78 -104 -192 -170 -346 -170c-262 0 -467 198 -467 520s206 524 478 524c150 0 265 -61 337 -172
c78 106 191 172 336 172c295 0 430 -229 430 -520zM1343 594c-10 152 -61 229 -155 229c-86 0 -150 -75 -158 -229h313zM723 500c0 162 -65 270 -184 270s-183 -104 -183 -268c0 -162 66 -273 183 -273c119 0 184 109 184 271z" />
    <glyph glyph-name="germandbls" unicode="&#xdf;" horiz-adv-x="1255" 
d="M1210 319c0 -221 -141 -333 -362 -333c-102 0 -201 24 -285 65l39 234c72 -43 145 -68 211 -68c61 0 102 31 102 92c0 70 -61 143 -294 215l-31 203c72 111 125 227 125 346c0 98 -41 154 -119 154c-80 0 -121 -62 -121 -166v-1061h-309v752h-139v252h139v34
c0 272 155 422 434 422s414 -151 414 -360c0 -166 -74 -274 -170 -383c240 -84 366 -193 366 -398z" />
    <glyph glyph-name="NUL" horiz-adv-x="0" 
 />
    <glyph glyph-name="Eth" unicode="&#xd0;" horiz-adv-x="1515" 
d="M1438 709c0 -420 -265 -709 -742 -709h-493v575h-135l-48 295h183v543h485c492 0 750 -284 750 -704zM1083 707c0 297 -163 434 -405 434h-135v-275h258v-288h-258v-306h135c252 0 405 132 405 435z" />
    <glyph glyph-name="eth" unicode="&#xf0;" horiz-adv-x="1103" 
d="M1040 639c0 -236 -65 -413 -180 -530c-88 -90 -195 -132 -336 -132c-260 0 -465 175 -465 484c0 291 166 479 381 479c115 0 211 -41 293 -119c-14 125 -74 213 -170 285l-57 -76h-178l104 148c-51 23 -109 41 -168 59l37 240c104 -20 201 -54 285 -91l63 93l176 -37
l-100 -133c203 -141 315 -357 315 -670zM741 614c-63 53 -143 86 -213 86c-102 0 -172 -87 -172 -247c0 -145 74 -234 187 -234c123 0 196 129 200 377c0 6 0 14 -2 18z" />
    <glyph glyph-name="Scaron" unicode="&#x160;" horiz-adv-x="1132" 
d="M1071 426c0 -307 -225 -442 -506 -442c-190 0 -350 40 -493 106l51 299c145 -78 307 -131 448 -131c100 0 170 43 170 127c0 80 -40 117 -239 193c-283 109 -406 201 -406 434c0 272 214 418 484 418c184 0 303 -36 426 -95l-54 -295c-127 74 -259 115 -368 115
c-106 0 -158 -45 -158 -111c0 -72 39 -106 215 -174c307 -113 430 -219 430 -444zM928 1837l-209 -301h-283l-196 274l182 37l158 -129l151 119h197z" />
    <glyph glyph-name="scaron" unicode="&#x161;" horiz-adv-x="950" 
d="M891 309c0 -211 -146 -325 -412 -325c-160 0 -309 45 -413 100l36 235c119 -74 264 -118 379 -118c86 0 127 28 127 75c0 51 -29 74 -170 109c-252 66 -358 134 -358 322c0 186 139 311 385 311c135 0 267 -27 371 -74l-39 -235c-109 59 -234 94 -330 94
c-74 0 -107 -27 -107 -66c0 -41 29 -63 170 -102c266 -72 361 -140 361 -326zM825 1421l-209 -301h-282l-197 275l182 37l158 -129l152 118h196z" />
    <glyph glyph-name="Yacute" unicode="&#xdd;" horiz-adv-x="1376" 
d="M1364 1413l-508 -893v-520h-352v516l-488 860l373 51l307 -587l301 573h367zM1081 1722l-301 -247h-196l123 309z" />
    <glyph glyph-name="yacute" unicode="&#xfd;" horiz-adv-x="1044" 
d="M1028 1004l-356 -1024c-90 -262 -213 -353 -432 -353c-61 0 -88 7 -117 13l-39 247c33 -10 64 -16 123 -16c70 0 131 26 164 96l12 31l-365 981l332 39l195 -633l184 619h299zM932 1350l-301 -248h-197l123 309z" />
    <glyph glyph-name="Thorn" unicode="&#xde;" horiz-adv-x="1191" 
d="M1137 735c0 -319 -228 -483 -570 -483h-88v-252h-350v1413h350v-217h103c346 0 555 -154 555 -461zM799 729c0 135 -80 203 -236 203h-88v-416h82c156 0 242 68 242 213z" />
    <glyph glyph-name="thorn" unicode="&#xfe;" horiz-adv-x="1114" 
d="M1049 528c0 -381 -201 -538 -422 -538c-90 0 -154 17 -211 35v-359l-310 -47v1811l310 49v-592c63 70 151 137 272 137c207 0 361 -156 361 -496zM739 508c0 168 -63 240 -151 240c-68 0 -121 -42 -172 -103v-381c43 -20 80 -31 139 -31c106 0 184 80 184 275z" />
    <glyph glyph-name="Zcaron" unicode="&#x17d;" horiz-adv-x="1255" 
d="M1188 0h-1106v254l659 881h-587l-43 278h1058v-254l-659 -880h633zM993 1819l-209 -301h-282l-197 274l182 37l158 -129l152 119h196z" />
    <glyph glyph-name="zcaron" unicode="&#x17e;" horiz-adv-x="956" 
d="M905 0h-846v233l439 529h-383l-37 242h803v-236l-439 -526h424zM829 1421l-208 -301h-283l-197 275l183 37l157 -129l152 118h196z" />
    <glyph glyph-name="onehalf" unicode="&#xbd;" horiz-adv-x="1024" 
d="M51 -410v2048h922v-2048h-922z" />
    <glyph glyph-name="onequarter" unicode="&#xbc;" horiz-adv-x="1024" 
d="M51 -410v2048h922v-2048h-922z" />
    <glyph glyph-name="onesuperior" unicode="&#xb9;" horiz-adv-x="1024" 
d="M51 -410v2048h922v-2048h-922z" />
    <glyph glyph-name="threequarters" unicode="&#xbe;" horiz-adv-x="1024" 
d="M51 -410v2048h922v-2048h-922z" />
    <glyph glyph-name="threesuperior" unicode="&#xb3;" horiz-adv-x="1024" 
d="M51 -410v2048h922v-2048h-922z" />
    <glyph glyph-name="twosuperior" unicode="&#xb2;" horiz-adv-x="1024" 
d="M51 -410v2048h922v-2048h-922z" />
    <glyph glyph-name="brokenbar" unicode="&#xa6;" horiz-adv-x="1024" 
d="M51 -410v2048h922v-2048h-922z" />
    <glyph glyph-name="minus" unicode="&#x2212;" horiz-adv-x="1024" 
d="M51 -410v2048h922v-2048h-922z" />
    <glyph glyph-name="multiply" unicode="&#xd7;" horiz-adv-x="1024" 
d="M51 -410v2048h922v-2048h-922z" />
    <glyph glyph-name="Adieresis" unicode="&#xc4;" horiz-adv-x="1437" 
d="M1411 43l-352 -57l-107 307h-485l-98 -293h-342l508 1419h385zM868 567l-159 492l-160 -492h319zM1055 1518h-267v268h267v-268zM649 1518h-266v268h266v-268z" />
    <glyph glyph-name="Aring" unicode="&#xc5;" horiz-adv-x="1437" 
d="M1411 43l-352 -57l-107 307h-485l-98 -293h-342l508 1419h385zM868 567l-159 492l-160 -492h319zM989 1733c0 -123 -92 -222 -270 -222s-270 99 -270 222c0 121 92 221 270 221s270 -100 270 -221zM821 1733c0 63 -41 116 -102 116s-103 -53 -103 -116
c0 -66 42 -119 103 -119s102 53 102 119z" />
    <glyph glyph-name="Ccedilla" unicode="&#xc7;" horiz-adv-x="1239" 
d="M1165 80c-115 -63 -245 -105 -401 -105c-428 0 -686 288 -686 730c0 438 275 733 676 733c160 0 289 -35 391 -92l-49 -316c-86 66 -193 115 -316 115c-213 0 -352 -162 -352 -438c0 -283 158 -439 371 -439c115 0 215 40 321 99zM907 -162l-284 -217h-199l111 279z" />
    <glyph glyph-name="Eacute" unicode="&#xc9;" horiz-adv-x="1095" 
d="M1028 0h-899v1413h881v-280h-537v-259h410l45 -288h-455v-305h555v-281zM899 1765l-301 -247h-197l123 309z" />
    <glyph glyph-name="Ntilde" unicode="&#xd1;" horiz-adv-x="1443" 
d="M1315 0h-303l-557 846v-846h-326v1413h340l520 -790v790h326v-1413zM1067 1778c-27 -211 -93 -285 -195 -285c-53 0 -88 16 -145 41c-78 33 -102 43 -133 43s-50 -18 -66 -90l-145 31c27 213 93 286 195 286c53 0 88 -14 145 -41c78 -35 102 -43 133 -43s50 20 66 92z
" />
    <glyph glyph-name="Odieresis" unicode="&#xd6;" horiz-adv-x="1505" 
d="M1427 709c0 -436 -265 -736 -677 -736c-406 0 -672 296 -672 732c0 438 266 735 676 735s673 -295 673 -731zM1075 707c0 281 -118 458 -323 458s-324 -177 -324 -458s121 -459 324 -459c205 0 323 178 323 459zM1087 1538h-266v268h266v-268zM682 1538h-266v268h266
v-268z" />
    <glyph glyph-name="Udieresis" unicode="&#xdc;" horiz-adv-x="1409" 
d="M1296 561c0 -393 -254 -584 -596 -584c-346 0 -587 187 -587 582v854h352v-852c0 -182 82 -289 240 -289c160 0 239 105 239 285v856h352v-852zM1040 1495h-266v268h266v-268zM635 1495h-266v268h266v-268z" />
    <glyph glyph-name="aacute" unicode="&#xe1;" horiz-adv-x="1038" 
d="M940 0h-274l-21 125c-82 -86 -178 -145 -315 -145c-160 0 -273 96 -273 278c0 236 181 346 574 381v18c0 88 -50 127 -152 127c-113 0 -217 -28 -323 -75l-37 233c115 47 243 78 407 78c276 0 414 -92 414 -348v-672zM631 276v213c-211 -33 -269 -102 -269 -190
c0 -63 40 -98 97 -98c59 0 117 26 172 75zM879 1368l-301 -248h-197l123 310z" />
    <glyph glyph-name="agrave" unicode="&#xe0;" horiz-adv-x="1038" 
d="M940 0h-274l-21 125c-82 -86 -178 -145 -315 -145c-160 0 -273 96 -273 278c0 236 181 346 574 381v18c0 88 -50 127 -152 127c-113 0 -217 -28 -323 -75l-37 233c115 47 243 78 407 78c276 0 414 -92 414 -348v-672zM631 276v213c-211 -33 -269 -102 -269 -190
c0 -63 40 -98 97 -98c59 0 117 26 172 75zM653 1120h-202l-299 248l378 62z" />
    <glyph glyph-name="acircumflex" unicode="&#xe2;" horiz-adv-x="1038" 
d="M940 0h-274l-21 125c-82 -86 -178 -145 -315 -145c-160 0 -273 96 -273 278c0 236 181 346 574 381v18c0 88 -50 127 -152 127c-113 0 -217 -28 -323 -75l-37 233c115 47 243 78 407 78c276 0 414 -92 414 -348v-672zM631 276v213c-211 -33 -269 -102 -269 -190
c0 -63 40 -98 97 -98c59 0 117 26 172 75zM862 1147l-182 -35l-158 127l-151 -119h-197l209 301h283z" />
    <glyph glyph-name="adieresis" unicode="&#xe4;" horiz-adv-x="1038" 
d="M940 0h-274l-21 125c-82 -86 -178 -145 -315 -145c-160 0 -273 96 -273 278c0 236 181 346 574 381v18c0 88 -50 127 -152 127c-113 0 -217 -28 -323 -75l-37 233c115 47 243 78 407 78c276 0 414 -92 414 -348v-672zM631 276v213c-211 -33 -269 -102 -269 -190
c0 -63 40 -98 97 -98c59 0 117 26 172 75zM860 1122h-266v269h266v-269zM455 1122h-267v269h267v-269z" />
    <glyph glyph-name="atilde" unicode="&#xe3;" horiz-adv-x="1038" 
d="M940 0h-274l-21 125c-82 -86 -178 -145 -315 -145c-160 0 -273 96 -273 278c0 236 181 346 574 381v18c0 88 -50 127 -152 127c-113 0 -217 -28 -323 -75l-37 233c115 47 243 78 407 78c276 0 414 -92 414 -348v-672zM631 276v213c-211 -33 -269 -102 -269 -190
c0 -63 40 -98 97 -98c59 0 117 26 172 75zM868 1405c-27 -211 -92 -285 -194 -285c-53 0 -89 16 -146 41c-78 33 -102 43 -133 43s-49 -18 -65 -90l-146 31c27 213 93 287 195 287c53 0 88 -14 145 -41c78 -35 102 -43 133 -43s50 20 66 92z" />
    <glyph glyph-name="aring" unicode="&#xe5;" horiz-adv-x="1038" 
d="M940 0h-274l-21 125c-82 -86 -178 -145 -315 -145c-160 0 -273 96 -273 278c0 236 181 346 574 381v18c0 88 -50 127 -152 127c-113 0 -217 -28 -323 -75l-37 233c115 47 243 78 407 78c276 0 414 -92 414 -348v-672zM631 276v213c-211 -33 -269 -102 -269 -190
c0 -63 40 -98 97 -98c59 0 117 26 172 75zM791 1337c0 -123 -93 -221 -271 -221s-270 98 -270 221c0 121 92 222 270 222s271 -101 271 -222zM623 1337c0 63 -42 117 -103 117s-102 -54 -102 -117c0 -66 41 -118 102 -118s103 52 103 118z" />
    <glyph glyph-name="ccedilla" unicode="&#xe7;" horiz-adv-x="923" 
d="M862 72c-100 -61 -200 -90 -319 -90c-289 0 -486 188 -486 512c0 354 226 526 498 526c121 0 217 -29 299 -76l-41 -264c-80 51 -145 74 -227 74c-125 0 -215 -84 -215 -252c0 -172 100 -256 225 -256c74 0 143 23 229 78zM735 -162l-284 -217h-199l110 279z" />
    <glyph glyph-name="eacute" unicode="&#xe9;" horiz-adv-x="1034" 
d="M975 504c0 -31 -2 -64 -6 -80h-602c16 -158 110 -219 245 -219c111 0 219 41 330 104l31 -217c-109 -70 -242 -112 -400 -112c-301 0 -516 160 -516 518c0 328 201 526 473 526c307 0 445 -229 445 -520zM680 594c-10 152 -64 229 -158 229c-86 0 -147 -75 -157 -229h315
zM899 1368l-301 -248h-197l123 310z" />
    <glyph glyph-name="egrave" unicode="&#xe8;" horiz-adv-x="1034" 
d="M975 504c0 -31 -2 -64 -6 -80h-602c16 -158 110 -219 245 -219c111 0 219 41 330 104l31 -217c-109 -70 -242 -112 -400 -112c-301 0 -516 160 -516 518c0 328 201 526 473 526c307 0 445 -229 445 -520zM680 594c-10 152 -64 229 -158 229c-86 0 -147 -75 -157 -229h315
zM635 1120h-203l-299 248l379 62z" />
    <glyph glyph-name="ecircumflex" unicode="&#xea;" horiz-adv-x="1034" 
d="M975 504c0 -31 -2 -64 -6 -80h-602c16 -158 110 -219 245 -219c111 0 219 41 330 104l31 -217c-109 -70 -242 -112 -400 -112c-301 0 -516 160 -516 518c0 328 201 526 473 526c307 0 445 -229 445 -520zM680 594c-10 152 -64 229 -158 229c-86 0 -147 -75 -157 -229h315
zM870 1147l-182 -35l-158 127l-151 -119h-197l209 301h283z" />
    <glyph glyph-name="edieresis" unicode="&#xeb;" horiz-adv-x="1034" 
d="M975 504c0 -31 -2 -64 -6 -80h-602c16 -158 110 -219 245 -219c111 0 219 41 330 104l31 -217c-109 -70 -242 -112 -400 -112c-301 0 -516 160 -516 518c0 328 201 526 473 526c307 0 445 -229 445 -520zM680 594c-10 152 -64 229 -158 229c-86 0 -147 -75 -157 -229h315
zM864 1122h-266v269h266v-269zM459 1122h-266v269h266v-269z" />
    <glyph glyph-name="iacute" unicode="&#xed;" horiz-adv-x="536" 
d="M602 1368l-268 -248h-174l108 310zM426 0h-309v1004h309v-1004z" />
    <glyph glyph-name="igrave" unicode="&#xec;" horiz-adv-x="536" 
d="M383 1120h-180l-266 248l337 62zM426 0h-309v1004h309v-1004z" />
    <glyph glyph-name="icircumflex" unicode="&#xee;" horiz-adv-x="536" 
d="M578 1147l-164 -35l-142 127l-135 -119h-178l186 301h256zM426 0h-309v1004h309v-1004z" />
    <glyph glyph-name="idieresis" unicode="&#xef;" horiz-adv-x="536" 
d="M555 1122h-231v269h231v-269zM213 1122h-231v269h231v-269zM426 0h-309v1004h309v-1004z" />
    <glyph glyph-name="ntilde" unicode="&#xf1;" horiz-adv-x="1099" 
d="M999 0h-311v629c0 72 -28 121 -102 121c-59 0 -115 -36 -170 -91v-659h-310v1004h273l22 -138c90 88 187 158 314 158c186 0 284 -116 284 -311v-713zM901 1405c-27 -211 -92 -285 -194 -285c-53 0 -89 16 -146 41c-78 33 -102 43 -133 43s-50 -18 -66 -90l-145 31
c27 213 93 287 195 287c53 0 88 -14 145 -41c78 -35 102 -43 133 -43s50 20 66 92z" />
    <glyph glyph-name="oacute" unicode="&#xf3;" horiz-adv-x="1079" 
d="M934 1368l-301 -248h-197l123 310zM1022 502c0 -322 -206 -522 -485 -522c-276 0 -480 198 -480 520s206 524 482 524c279 0 483 -200 483 -522zM723 500c0 162 -65 270 -184 270s-183 -104 -183 -268c0 -162 66 -273 183 -273c119 0 184 109 184 271z" />
    <glyph glyph-name="ograve" unicode="&#xf2;" horiz-adv-x="1079" 
d="M1022 502c0 -322 -206 -522 -485 -522c-276 0 -480 198 -480 520s206 524 482 524c279 0 483 -200 483 -522zM723 500c0 162 -65 270 -184 270s-183 -104 -183 -268c0 -162 66 -273 183 -273c119 0 184 109 184 271zM643 1120h-203l-299 248l379 62z" />
    <glyph glyph-name="ocircumflex" unicode="&#xf4;" horiz-adv-x="1079" 
d="M1022 502c0 -322 -206 -522 -485 -522c-276 0 -480 198 -480 520s206 524 482 524c279 0 483 -200 483 -522zM723 500c0 162 -65 270 -184 270s-183 -104 -183 -268c0 -162 66 -273 183 -273c119 0 184 109 184 271zM881 1147l-183 -35l-157 127l-152 -119h-196l208 301
h283z" />
    <glyph glyph-name="odieresis" unicode="&#xf6;" horiz-adv-x="1079" 
d="M1022 502c0 -322 -206 -522 -485 -522c-276 0 -480 198 -480 520s206 524 482 524c279 0 483 -200 483 -522zM723 500c0 162 -65 270 -184 270s-183 -104 -183 -268c0 -162 66 -273 183 -273c119 0 184 109 184 271zM874 1122h-266v269h266v-269zM469 1122h-266v269h266
v-269z" />
    <glyph glyph-name="otilde" unicode="&#xf5;" horiz-adv-x="1079" 
d="M1022 502c0 -322 -206 -522 -485 -522c-276 0 -480 198 -480 520s206 524 482 524c279 0 483 -200 483 -522zM723 500c0 162 -65 270 -184 270s-183 -104 -183 -268c0 -162 66 -273 183 -273c119 0 184 109 184 271zM883 1405c-27 -211 -93 -285 -195 -285
c-53 0 -88 16 -145 41c-78 33 -102 43 -133 43s-50 -18 -66 -90l-145 31c27 213 92 287 194 287c53 0 89 -14 146 -41c78 -35 102 -43 133 -43s49 20 65 92z" />
    <glyph glyph-name="uacute" unicode="&#xfa;" horiz-adv-x="1099" 
d="M993 0h-272l-23 137c-92 -90 -188 -157 -313 -157c-186 0 -285 114 -285 309v715h310v-629c0 -72 30 -123 104 -123c59 0 115 35 170 90v662h309v-1004zM911 1368l-301 -248h-196l123 310z" />
    <glyph glyph-name="ugrave" unicode="&#xf9;" horiz-adv-x="1099" 
d="M993 0h-272l-23 137c-92 -90 -188 -157 -313 -157c-186 0 -285 114 -285 309v715h310v-629c0 -72 30 -123 104 -123c59 0 115 35 170 90v662h309v-1004zM668 1120h-203l-299 248l379 62z" />
    <glyph glyph-name="ucircumflex" unicode="&#xfb;" horiz-adv-x="1099" 
d="M993 0h-272l-23 137c-92 -90 -188 -157 -313 -157c-186 0 -285 114 -285 309v715h310v-629c0 -72 30 -123 104 -123c59 0 115 35 170 90v662h309v-1004zM891 1147l-182 -35l-158 127l-152 -119h-196l209 301h282z" />
    <glyph glyph-name="udieresis" unicode="&#xfc;" horiz-adv-x="1099" 
d="M993 0h-272l-23 137c-92 -90 -188 -157 -313 -157c-186 0 -285 114 -285 309v715h310v-629c0 -72 30 -123 104 -123c59 0 115 35 170 90v662h309v-1004zM887 1122h-266v269h266v-269zM481 1122h-266v269h266v-269z" />
    <glyph glyph-name="degree" unicode="&#xb0;" horiz-adv-x="913" 
d="M819 1034c0 -211 -151 -360 -362 -360s-363 149 -363 360c0 209 152 363 363 363s362 -154 362 -363zM635 1034c0 109 -72 193 -178 193s-178 -84 -178 -193c0 -111 72 -190 178 -190s178 79 178 190z" />
    <glyph glyph-name="registered" unicode="&#xae;" horiz-adv-x="1153" 
d="M1040 963c0 -283 -195 -476 -465 -476c-274 0 -464 191 -464 476c0 283 194 477 464 477c274 0 465 -192 465 -477zM973 963c0 270 -177 421 -398 421s-397 -151 -397 -421c0 -268 176 -420 397 -420c223 0 398 152 398 420zM827 735l-153 -24l-119 188h-29v-182h-143
v524h203c129 0 205 -58 205 -164c0 -70 -34 -118 -95 -145zM649 1067c0 45 -29 72 -80 72h-43v-146h41c53 0 82 25 82 74z" />
    <glyph glyph-name="copyright" unicode="&#xa9;" horiz-adv-x="1636" 
d="M1526 709c0 -436 -291 -736 -709 -736c-420 0 -706 296 -706 732c0 438 290 735 708 735c420 0 707 -295 707 -731zM1436 707c0 424 -271 659 -617 659c-352 0 -618 -235 -618 -659s270 -660 618 -660c350 0 617 236 617 660zM1116 362c-80 -45 -160 -65 -256 -65
c-260 0 -418 168 -418 416s170 415 414 415c96 0 176 -20 246 -53l-31 -201c-72 47 -127 66 -201 66c-121 0 -190 -94 -190 -225c0 -139 78 -230 205 -230c61 0 124 17 202 62z" />
    <glyph glyph-name="trademark" unicode="&#x2122;" horiz-adv-x="1662" 
d="M1589 707h-194l-31 440l-131 -445h-176l-131 445l-31 -440h-168l53 706h246l137 -461l137 461h236zM680 1260h-225v-553h-191v553h-209v153h602z" />
    <glyph glyph-name="notequal" unicode="&#x2260;" horiz-adv-x="1116" 
d="M1040 422c0 -270 -197 -449 -516 -449c-182 0 -340 46 -461 107l43 270c115 -63 252 -104 375 -104c150 0 230 63 230 180c0 119 -100 174 -297 174h-111l-33 203l338 313h-481l-45 268h926v-247l-357 -322c229 -39 389 -143 389 -393z" />
    <glyph glyph-name="infinity" unicode="&#x221e;" horiz-adv-x="1038" 
d="M940 0h-274l-21 125c-82 -86 -178 -145 -315 -145c-160 0 -273 96 -273 278c0 236 181 346 574 381v18c0 88 -50 127 -152 127c-113 0 -217 -28 -323 -75l-37 233c115 47 243 78 407 78c276 0 414 -92 414 -348v-672zM631 276v213c-211 -33 -269 -102 -269 -190
c0 -63 40 -98 97 -98c59 0 117 26 172 75z" />
    <glyph glyph-name="plusminus" unicode="&#xb1;" horiz-adv-x="1249" 
d="M1210 276h-194v-276h-316v276h-647v230l584 889l297 -70l-551 -813h322v299l311 68v-367h194v-236z" />
    <glyph glyph-name="lessequal" unicode="&#x2264;" horiz-adv-x="1810" 
d="M1683 0h-333v930l-310 -936h-305l-309 936v-930h-297v1413h469l315 -967l314 967h456v-1413z" />
    <glyph glyph-name="greaterequal" unicode="&#x2265;" horiz-adv-x="1429" 
d="M983 135c-129 -90 -258 -149 -418 -149c-266 0 -442 128 -442 456v971h352v-921c0 -139 62 -207 193 -207c88 0 182 40 282 116v1012h350v-1413h-294s-21 135 -23 135z" />
    <glyph glyph-name="mu" unicode="&#xb5;" horiz-adv-x="1171" 
d="M870 231l-286 291l-285 -289l-172 173l289 284l-291 287l176 176l287 -291l284 289l172 -172l-288 -285l291 -286z" />
    <glyph glyph-name="partialdiff" unicode="&#x2202;" horiz-adv-x="1529" 
d="M1479 289l-60 -318l-221 176c-115 -106 -268 -167 -448 -167c-408 0 -674 289 -674 725c0 438 268 735 678 735c424 0 673 -301 673 -719c0 -129 -24 -244 -71 -344zM1081 713c0 274 -118 452 -325 452c-209 0 -328 -177 -328 -460s121 -461 328 -461c86 0 156 31 209 86
l-312 235l344 76l64 -47c12 33 20 72 20 119z" />
    <glyph glyph-name="summation" unicode="&#x2211;" horiz-adv-x="2070" 
d="M2044 1413l-459 -1419h-352l-199 594l-217 -594h-344l-444 1376l368 57l297 -978l203 552l-121 373l369 56l278 -981l273 964h348z" />
    <glyph glyph-name="product" unicode="&#x220f;" horiz-adv-x="1024" 
d="M51 -410v2048h922v-2048h-922z" />
    <glyph glyph-name="pi" unicode="&#x3c0;" horiz-adv-x="1636" 
d="M1526 709c0 -436 -291 -736 -709 -736c-420 0 -706 296 -706 732c0 438 290 735 708 735c420 0 707 -295 707 -731zM1436 707c0 424 -271 659 -617 659c-352 0 -618 -235 -618 -659s270 -660 618 -660c350 0 617 236 617 660zM1174 844c0 -184 -131 -283 -332 -283h-66
v-254h-225v807h303c195 0 320 -98 320 -270zM958 840c0 74 -47 112 -127 112h-57v-231h55c80 0 129 41 129 119z" />
    <glyph glyph-name="integral" unicode="&#x222b;" horiz-adv-x="1107" 
d="M1001 61c0 -285 -163 -434 -485 -434c-160 0 -280 31 -389 74l45 233c92 -47 201 -77 305 -77c135 0 215 59 215 194v86c-66 -63 -149 -127 -268 -127c-207 0 -363 153 -363 479c0 360 201 527 508 527c162 0 313 -29 432 -72v-883zM692 369v379c-41 14 -67 18 -114 18
c-121 0 -205 -72 -205 -262c0 -160 61 -232 149 -232c63 0 117 42 170 97z" />
    <glyph glyph-name="Omega" unicode="&#x3a9;" horiz-adv-x="1396" 
d="M1407 1212c-29 4 -68 9 -111 9c-84 0 -122 -41 -122 -123v-94h180l41 -252h-221v-752h-308v752h-141v252h141v124c0 242 146 332 379 332c49 0 90 -6 125 -10zM709 1212c-31 4 -68 9 -111 9c-84 0 -123 -41 -123 -123v-94h182l37 -252h-219v-752h-309v752h-139v252h139
v124c0 242 150 332 381 332c49 0 90 -6 125 -10z" />
    <glyph glyph-name="logicalnot" unicode="&#xac;" horiz-adv-x="1171" 
d="M1061 563h-950v258h950v-258z" />
    <glyph glyph-name="radical" unicode="&#x221a;" horiz-adv-x="1933" 
d="M1821 0h-310v1430l310 49v-1479zM1407 1212c-29 4 -68 9 -111 9c-84 0 -122 -41 -122 -123v-94h180l41 -252h-221v-752h-308v752h-141v252h141v124c0 242 146 332 379 332c49 0 90 -6 125 -10zM709 1212c-31 4 -68 9 -111 9c-84 0 -123 -41 -123 -123v-94h182l37 -252
h-219v-752h-309v752h-139v252h139v124c0 242 150 332 381 332c49 0 90 -6 125 -10z" />
    <glyph glyph-name="approxequal" unicode="&#x2248;" horiz-adv-x="1933" 
d="M1841 1303c0 -100 -78 -166 -174 -166c-100 0 -176 66 -176 166s76 165 176 165c96 0 174 -65 174 -165zM1407 1212c-29 4 -68 9 -111 9c-84 0 -122 -41 -122 -123v-94h180l41 -252h-221v-752h-308v752h-141v252h141v124c0 242 146 332 379 332c49 0 90 -6 125 -10z
M709 1212c-31 4 -68 9 -111 9c-84 0 -123 -41 -123 -123v-94h182l37 -252h-219v-752h-309v752h-139v252h139v124c0 242 150 332 381 332c49 0 90 -6 125 -10zM1821 0h-310v1004h310v-1004z" />
    <glyph glyph-name="Delta" unicode="&#x394;" horiz-adv-x="1024" 
d="M51 -410v2048h922v-2048h-922z" />
    <glyph glyph-name="nbspace" unicode="&#xa0;" horiz-adv-x="212" 
 />
    <glyph glyph-name="Agrave" unicode="&#xc0;" horiz-adv-x="1437" 
d="M1411 43l-352 -57l-107 307h-485l-98 -293h-342l508 1419h385zM868 567l-159 492l-160 -492h319zM827 1516h-202l-299 247l379 62z" />
    <glyph glyph-name="Atilde" unicode="&#xc3;" horiz-adv-x="1437" 
d="M1411 43l-352 -57l-107 307h-485l-98 -293h-342l508 1419h385zM868 567l-159 492l-160 -492h319zM1061 1800c-27 -211 -93 -284 -195 -284c-53 0 -88 15 -145 40c-78 33 -102 43 -133 43s-50 -18 -66 -90l-145 31c27 213 92 287 194 287c53 0 89 -14 146 -41
c78 -35 102 -43 133 -43s49 20 65 92z" />
    <glyph glyph-name="Otilde" unicode="&#xd5;" horiz-adv-x="1505" 
d="M1427 709c0 -436 -265 -736 -677 -736c-406 0 -672 296 -672 732c0 438 266 735 676 735s673 -295 673 -731zM1075 707c0 281 -118 458 -323 458s-324 -177 -324 -458s121 -459 324 -459c205 0 323 178 323 459zM1094 1823c-27 -211 -93 -285 -195 -285
c-53 0 -88 16 -145 41c-78 33 -102 43 -133 43s-50 -18 -66 -90l-145 31c27 213 92 286 194 286c53 0 89 -14 146 -41c78 -35 102 -43 133 -43s49 21 65 93z" />
    <glyph glyph-name="divide" unicode="&#xf7;" horiz-adv-x="1171" 
d="M723 967h-274v266h274v-266zM1061 573h-950v238h950v-238zM723 152h-274v266h274v-266z" />
    <glyph glyph-name="lozenge" unicode="&#x25ca;" horiz-adv-x="1662" 
d="M1589 707h-194l-31 440l-131 -445h-176l-131 445l-31 -440h-168l53 706h246l137 -461l137 461h236zM373 696c-86 0 -162 21 -236 58l27 159c76 -43 149 -69 215 -69c43 0 72 20 72 55c0 37 -23 57 -101 88c-141 59 -200 106 -200 225c0 133 106 211 239 211
c86 0 148 -18 203 -49l-23 -160c-70 41 -131 62 -182 62c-45 0 -68 -22 -68 -49c0 -33 19 -51 91 -82c152 -61 215 -111 215 -232c0 -150 -111 -217 -252 -217z" />
    <glyph glyph-name="ydieresis" unicode="&#xff;" horiz-adv-x="1044" 
d="M1028 1004l-356 -1024c-90 -262 -213 -353 -432 -353c-61 0 -88 7 -117 13l-39 247c33 -10 64 -16 123 -16c70 0 131 26 164 96l12 31l-365 981l332 39l195 -633l184 619h299zM877 1122h-267v269h267v-269zM471 1122h-266v269h266v-269z" />
    <glyph glyph-name="Ydieresis" unicode="&#x178;" horiz-adv-x="1376" 
d="M1364 1413l-508 -893v-520h-352v516l-488 860l373 51l307 -587l301 573h367zM1032 1495h-266v268h266v-268zM627 1495h-267v268h267v-268z" />
    <glyph glyph-name="Acircumflex" unicode="&#xc2;" horiz-adv-x="1437" 
d="M1411 43l-352 -57l-107 307h-485l-98 -293h-342l508 1419h385zM868 567l-159 492l-160 -492h319zM1061 1524l-182 -35l-158 127l-152 -119h-196l209 301h282z" />
    <glyph glyph-name="Ecircumflex" unicode="&#xca;" horiz-adv-x="1095" 
d="M1028 0h-899v1413h881v-280h-537v-259h410l45 -288h-455v-305h555v-281zM905 1544l-182 -35l-158 127l-151 -118h-197l209 301h283z" />
    <glyph glyph-name="Aacute" unicode="&#xc1;" horiz-adv-x="1437" 
d="M1118 1763l-301 -247h-196l122 309zM1411 43l-352 -57l-107 307h-485l-98 -293h-342l508 1419h385zM868 567l-159 492l-160 -492h319z" />
    <glyph glyph-name="Edieresis" unicode="&#xcb;" horiz-adv-x="1095" 
d="M1028 0h-899v1413h881v-280h-537v-259h410l45 -288h-455v-305h555v-281zM899 1520h-266v268h266v-268zM494 1520h-267v268h267v-268z" />
    <glyph glyph-name="Egrave" unicode="&#xc8;" horiz-adv-x="1095" 
d="M1028 0h-899v1413h881v-280h-537v-259h410l45 -288h-455v-305h555v-281zM723 1518h-203l-299 247l379 62z" />
    <glyph glyph-name="Iacute" unicode="&#xcd;" horiz-adv-x="624" 
d="M700 1765l-301 -247h-196l123 309zM487 0h-350v1413h350v-1413z" />
    <glyph glyph-name="Icircumflex" unicode="&#xce;" horiz-adv-x="624" 
d="M487 0h-350v1413h350v-1413zM655 1526l-182 -35l-158 127l-151 -119h-197l209 301h283z" />
    <glyph glyph-name="Idieresis" unicode="&#xcf;" horiz-adv-x="624" 
d="M487 0h-350v1413h350v-1413zM649 1520h-266v268h266v-268zM244 1520h-267v268h267v-268z" />
    <glyph glyph-name="Igrave" unicode="&#xcc;" horiz-adv-x="624" 
d="M487 0h-350v1413h350v-1413zM426 1518h-203l-299 247l379 62z" />
    <glyph glyph-name="Oacute" unicode="&#xd3;" horiz-adv-x="1505" 
d="M1130 1784l-301 -248h-196l123 309zM1427 709c0 -436 -265 -736 -677 -736c-406 0 -672 296 -672 732c0 438 266 735 676 735s673 -295 673 -731zM1075 707c0 281 -118 458 -323 458s-324 -177 -324 -458s121 -459 324 -459c205 0 323 178 323 459z" />
    <glyph glyph-name="Ocircumflex" unicode="&#xd4;" horiz-adv-x="1505" 
d="M1427 709c0 -436 -265 -736 -677 -736c-406 0 -672 296 -672 732c0 438 266 735 676 735s673 -295 673 -731zM1075 707c0 281 -118 458 -323 458s-324 -177 -324 -458s121 -459 324 -459c205 0 323 178 323 459zM1094 1552l-183 -34l-157 127l-152 -119h-196l208 301h283
z" />
    <glyph glyph-name="apple" unicode="&#xf8ff;" horiz-adv-x="1421" 
d="M1319 -410h-426l-16 29h-334l-17 -29h-424v621c37 0 66 28 66 65c0 35 -29 66 -66 66v1135h205l62 161h684l59 -161h207v-1887zM819 1153v-352h31v160h78v28h-78v135h88v29h-119zM377 1153v-352h31v162h96v-162h31v352h-31v-162h-96v162h-31zM942 807c8 -4 31 -8 43 -8
c41 0 64 22 64 73v281h-33v-281c0 -33 -10 -45 -33 -45c-10 0 -31 7 -41 13v-33zM1071 662v-95h16v27l15 14l33 -41h18l-39 54l37 41h-21l-43 -50v50h-16zM999 598l21 -31h18l-24 35c12 4 20 17 20 31c0 12 -13 29 -33 29h-43v-95h17v31h24zM872 565c31 0 50 22 50 49
c0 25 -21 50 -50 50s-47 -25 -47 -50c0 -27 18 -49 47 -49zM758 616l-27 46h-18l37 -60v-35h16v35l37 60h-19zM395 662v-95h68v15h-51v26h45v15h-45v24h51v15h-68zM270 662v-95h17v66l51 -66h14v95h-16v-66l-51 66h-15zM494 662l30 -97h17l20 70h2l23 -70h16l29 97h-17
l-20 -72h-2l-21 72h-16l-23 -72h-2l-20 72h-16zM670 981c-14 27 -25 46 -25 66s13 38 29 38s26 -18 26 -38c0 -25 -10 -43 -30 -66zM700 866c-6 -20 -22 -43 -36 -43c-20 0 -35 25 -35 56c0 23 12 49 30 67zM999 612h-24v35h22c12 0 21 -6 21 -16s-9 -19 -19 -19zM872 580
c-18 0 -30 16 -30 34c0 16 12 35 30 35s33 -19 33 -35c0 -18 -15 -34 -33 -34zM715 897l-33 64c27 25 47 53 47 86c0 31 -18 63 -55 63c-35 0 -58 -32 -58 -63s13 -49 29 -80c-31 -25 -47 -58 -47 -93c0 -45 27 -79 64 -79c27 0 45 24 55 49h2l24 -49l23 16l-33 61
c10 25 21 51 27 80l-27 6c-4 -18 -12 -43 -18 -61z" />
    <glyph glyph-name="Ograve" unicode="&#xd2;" horiz-adv-x="1505" 
d="M1427 709c0 -436 -265 -736 -677 -736c-406 0 -672 296 -672 732c0 438 266 735 676 735s673 -295 673 -731zM1075 707c0 281 -118 458 -323 458s-324 -177 -324 -458s121 -459 324 -459c205 0 323 178 323 459zM866 1536h-202l-299 248l378 61z" />
    <glyph glyph-name="Uacute" unicode="&#xda;" horiz-adv-x="1409" 
d="M1079 1733l-301 -248h-196l123 309zM1296 561c0 -393 -254 -584 -596 -584c-346 0 -587 187 -587 582v854h352v-852c0 -182 82 -289 240 -289c160 0 239 105 239 285v856h352v-852z" />
    <glyph glyph-name="Ucircumflex" unicode="&#xdb;" horiz-adv-x="1409" 
d="M1296 561c0 -393 -254 -584 -596 -584c-346 0 -587 187 -587 582v854h352v-852c0 -182 82 -289 240 -289c160 0 239 105 239 285v856h352v-852zM1047 1520l-183 -35l-157 127l-152 -119h-197l209 301h283z" />
    <glyph glyph-name="Ugrave" unicode="&#xd9;" horiz-adv-x="1409" 
d="M1296 561c0 -393 -254 -584 -596 -584c-346 0 -587 187 -587 582v854h352v-852c0 -182 82 -289 240 -289c160 0 239 105 239 285v856h352v-852zM829 1485h-202l-299 248l379 61z" />
    </font>
</defs>
</svg>
